<svg xmlns="http://www.w3.org/2000/svg" width="256" height="256" viewBox="0 0 256 256" role="img" aria-labelledby="title desc">
  <title id="title">Komari Auto Update</title>
  <desc id="desc">A shield logo with circular update arrows and a check mark.</desc>
  <defs>
    <linearGradient id="shield" x1="54" y1="34" x2="202" y2="222" gradientUnits="userSpaceOnUse">
      <stop offset="0" stop-color="#38bdf8"/>
      <stop offset="0.55" stop-color="#6366f1"/>
      <stop offset="1" stop-color="#22c55e"/>
    </linearGradient>
    <filter id="shadow" x="-30%" y="-30%" width="160%" height="160%">
      <feDropShadow dx="0" dy="14" stdDeviation="14" flood-color="#0f172a" flood-opacity="0.22"/>
    </filter>
  </defs>
  <rect width="256" height="256" rx="56" fill="#0f172a"/>
  <path filter="url(#shadow)" d="M128 28 202 58v58c0 48.8-28.8 92.9-74 112-45.2-19.1-74-63.2-74-112V58l74-30Z" fill="url(#shield)"/>
  <path d="M80 115a49 49 0 0 1 82.5-35.6" fill="none" stroke="#f8fafc" stroke-width="14" stroke-linecap="round"/>
  <path d="M166 69v31h-31" fill="none" stroke="#f8fafc" stroke-width="14" stroke-linecap="round" stroke-linejoin="round"/>
  <path d="M176 141a49 49 0 0 1-82.5 35.6" fill="none" stroke="#f8fafc" stroke-width="14" stroke-linecap="round"/>
  <path d="M90 187v-31h31" fill="none" stroke="#f8fafc" stroke-width="14" stroke-linecap="round" stroke-linejoin="round"/>
  <path d="m104 130 18 18 36-42" fill="none" stroke="#f8fafc" stroke-width="16" stroke-linecap="round" stroke-linejoin="round"/>
</svg>
